<svg xmlns="http://www.w3.org/2000/svg" width="63" height="57" viewBox="0 0 63 57">
  <g id="behance" transform="translate(-914.03 -535.924)">
    <path id="behance_logo" d="M35.75,17H46.833v3.285H35.75ZM27.061,27.56a4.846,4.846,0,0,0,3.013-4.693c0-5.942-6.257-5.865-7.415-5.865H12V40H23.123C24.049,40,31,39.727,31,33.426,31,29.36,28.451,28.029,27.061,27.56ZM16.75,20.989h4.636c.462,0,3.475.171,3.475,2.582a2.877,2.877,0,0,1-3.011,2.816h-5.1Zm5.282,15.02H16.7V29.674h5.331c1.157,0,3.707.389,3.707,3.285S22.494,36.008,22.032,36.008Zm22.328-.289a4.244,4.244,0,0,1-2.453.716c-3.683,0-4.416-3.221-4.416-4.649H50a17.347,17.347,0,0,0-.245-3.673,7.952,7.952,0,0,0-8.092-6.185c-8.621,0-9.079,7.849-9.079,9.035a8.429,8.429,0,0,0,.739,3.566,8.1,8.1,0,0,0,1.716,2.852,10.869,10.869,0,0,0,2.7,1.9,10.061,10.061,0,0,0,3.68.716,9.266,9.266,0,0,0,5.151-1.426,8.382,8.382,0,0,0,3.189-4.281H45.586A3.207,3.207,0,0,1,44.36,35.719Zm-2.7-10.461c2.4,0,3.433,2.615,3.676,3.8H37.492C37.492,28.824,38.079,25.258,41.662,25.258Z" transform="translate(915 535.5)" fill="#002243"/>
    <path id="Path_216" data-name="Path 216" d="M938.355,591.424H916.53v-54h60v54H954.65" transform="translate(-1)" fill="none" stroke="#002243" stroke-width="3"/>
  </g>
</svg>
