<svg xmlns="http://www.w3.org/2000/svg" width="63" height="57" viewBox="0 0 63 57">
  <g id="linkedin" transform="translate(-988.5 -535.924)">
    <path id="icons8-linkedin-2" d="M10.522,31H4V11.909h6.522ZM7.262,9.364A3.223,3.223,0,0,1,4,6.181,3.222,3.222,0,0,1,7.262,3a3.224,3.224,0,0,1,3.26,3.181A3.225,3.225,0,0,1,7.262,9.364ZM34,31H27.73V21.709c0-2.216-.043-5.065-3.26-5.065-3.265,0-3.767,2.413-3.767,4.905V31H14.435V11.9h6.018v2.61h.085a6.667,6.667,0,0,1,5.936-3.085c6.352,0,7.526,3.957,7.526,9.1Z" transform="translate(1001 547.424)" fill="#002243"/>
    <path id="Path_217" data-name="Path 217" d="M938.355,591.424H916.53v-54h60v54H954.65" transform="translate(73.47)" fill="none" stroke="#002243" stroke-width="3"/>
  </g>
</svg>
